<mxfile host="app.diagrams.net" modified="2021-02-05T17:32:49.718Z" agent="5.0 (X11)" etag="7wkoJddsztwLVXl0z600" version="14.2.9" type="github">
  <diagram id="rQ0CQYbtxyLuo1pdPNJ5" name="Page-1">
    <mxGraphModel dx="1422" dy="762" grid="1" gridSize="10" guides="1" tooltips="1" connect="1" arrows="1" fold="1" page="1" pageScale="1" pageWidth="850" pageHeight="1100" math="0" shadow="0">
      <root>
        <mxCell id="0" />
        <mxCell id="1" parent="0" />
        <mxCell id="ymiEe-dzsYsbDkUEY5-Q-1" value="Test" style="whiteSpace=wrap;html=1;aspect=fixed;" vertex="1" parent="1">
          <mxGeometry x="345" y="240" width="80" height="80" as="geometry" />
        </mxCell>
      </root>
    </mxGraphModel>
  </diagram>
</mxfile>
